# xmcd
#
# Track frame offsets:
#	150
#	26623
#	41443
#	54302
#	72017
#	92555
#	104627
#	128567
#	149593
#	167359
#	178854
#	197073
#	208487
#	235205
#	252056
#	273246
#	288313
#	299974
#
# Disc length: 4265 seconds
#
# Revision: 1
# Processed by: cddbd v1.5.2PL0 Copyright (c) Steve Scherf et al.
# Submitted via: audiograbber 1.83.01
#
DISCID=1410a712
DTITLE=Whiskeytown - Strangers Almanac [Deluxe Edition] CD1
DYEAR=1997
DGENRE=Country
TTITLE0=Inn Town
TTITLE1=Excuse Me While I Break My Own Heart Tonight
TTITLE2=Yesterday's News
TTITLE3=16 Days
TTITLE4=Everything I Do
TTITLE5=Houses On The Hill
TTITLE6=Turn Around
TTITLE7=Dancing With The Women At The Bar
TTITLE8=Waiting To Derail
TTITLE9=Avenues
TTITLE10=Losering
TTITLE11=Somebody Remembers The Rose
TTITLE12=Not Home Anymore
TTITLE13=Houses On The Hill [Live]
TTITLE14=Nurse With The Pills [Live]
TTITLE15=I Don't Care What You Think About Me [Live]
TTITLE16=Somebody Remembers The Rose [Live]
TTITLE17=Turn Around [Live]
EXTD=
EXTT0=
EXTT1=
EXTT2=
EXTT3=
EXTT4=
EXTT5=
EXTT6=
EXTT7=
EXTT8=
EXTT9=
EXTT10=
EXTT11=
EXTT12=
EXTT13=
EXTT14=
EXTT15=
EXTT16=
EXTT17=
PLAYORDER=
